<?xml version="1.0" encoding="utf-8"?>
<!-- Generator: Adobe Illustrator 25.0.0, SVG Export Plug-In . SVG Version: 6.00 Build 0)  -->
<svg version="1.1" id="Layer_1" xmlns="http://www.w3.org/2000/svg" xmlns:xlink="http://www.w3.org/1999/xlink" x="0px" y="0px"
	 viewBox="0 0 2500 2500" style="enable-background:new 0 0 2500 2500;" xml:space="preserve">
<style type="text/css">
	.st0{fill-rule:evenodd;clip-rule:evenodd;fill:#33348E;}
</style>
<path class="st0" d="M1282.2,176.8L259.6,862.3l425.7,276.4L1193.8,796L992.1,663.4l276.3-185.1L1868,876.2l-983.7,660.4
	l212.8,140.9l1224.1-815.1l-2.8-2.8L1282.2,176.8z M2302.1,177.1L1876.5,459l212.8,143.7L2302.1,459V177.1L2302.1,177.1z
	 M252.6,2237.8L678.1,1956l-212.8-143.7L252.6,1956L252.6,2237.8L252.6,2237.8z"/>
<path class="st0" d="M1281.8,2237.2l1022.7-685.5l-425.6-276.4l-508.6,342.7l201.7,132.5l-276.3,185.1L696,1537.9l983.7-660.4
	l-212.8-140.9L242.8,1551.7l2.8,2.8L1281.8,2237.2L1281.8,2237.2z"/>
</svg>
