<svg id="Layer_1" data-name="Layer 1" xmlns="http://www.w3.org/2000/svg" viewBox="0 0 328.38 190.5"><defs><style>.cls-1{fill:#ef1626;}.cls-2{fill:#e8272f;}.cls-3{fill:#e9262e;}.cls-4{fill:#ec202a;}.cls-5{fill:#231f20;}.cls-6{fill:#f02226;}.cls-7{fill:#f41a18;}</style></defs><path class="cls-1" d="M710.87,495.31a7.59,7.59,0,0,0,.89,2.17c3.09,5.24,17.25,29.53,20.14,39.28,2,6.76,6.5,6.31,9.64,5a8.51,8.51,0,0,0,4.5-4.58c3.17-7.6,12-30,9.57-38-3-9.78-15.11-7.11-13.63-.59s-1.48,27.55-1.48,27.55-3.73,7.71-6.9-11.55a129.9,129.9,0,0,0-7.12-26.71,5.87,5.87,0,0,0-5.28-3.68C716.26,484,708.63,485.2,710.87,495.31Z" transform="translate(-546.52 -355)"/><path class="cls-2" d="M774.33,539.92c-1.42,1.93-4.28,4.49-7.87.57a6.54,6.54,0,0,1-1.71-4.2c-.26-7.15-.53-30.46,7.09-29.61,9,1,4.67,5.66,4.11,12.33-.5,6.07-1.28,13.43-.83,18A4.18,4.18,0,0,1,774.33,539.92Z" transform="translate(-546.52 -355)"/><path class="cls-2" d="M781.12,499.7c-1.85,2.47-5.93,6-12.43,2a2.35,2.35,0,0,1-.49-3.62c3.18-3.31,9.86-9,13.23-2.43A3.86,3.86,0,0,1,781.12,499.7Z" transform="translate(-546.52 -355)"/><path class="cls-3" d="M805.16,536.46c-2.67,7.22-9.22,6.89-12.06,6s-9.11-8.89-6.28-26.11c2.14-13,9.69-12.8,13.29-11.93a4.77,4.77,0,0,1,2.79,1.94c3,4.28,5.28,5.44,6.74,5.63a1.36,1.36,0,0,0,1.49-1.58c-.8-4.62-.3-15.49,0-20.41a8.14,8.14,0,0,1,2.45-5.51c4.75-4.44,9.74,1,9.93,4.75a34.62,34.62,0,0,1-4,16.72c-3,5.44-2,27.5-2.06,29.83s.72,8-4.61,8.06c-4,.08-4-4.42-3.8-6.73a1.55,1.55,0,0,0-1.89-1.66A4.83,4.83,0,0,0,805.16,536.46Zm-5.34-.62c5.11-.28,5.56-3.16,5.56-3.16,4.54-18.75-1-21.16-4.07-21.19a3.49,3.49,0,0,0-2.66,1.21C792.38,520,795.4,530,797,534A2.88,2.88,0,0,0,799.82,535.84Z" transform="translate(-546.52 -355)"/><path class="cls-4" d="M848.14,501.84c4.82,0,7.51,1,11.49,8.81,3.07,6.06.07,29.63,0,31.41s-3.34,4.37-7.41,3.11c-3.27-1-2.72-4.81-2.21-6.24.13-.37-.16-.64-.53-.78a2.78,2.78,0,0,0-2.61.53s-1,3.53-10.28,4.05-9.7-9.56-8.15-15.41,6.45-6.67,13.53-8.3a11.7,11.7,0,0,0,9-8.56c.07-.89.49-2.63-3.81-2.11-3.22.39-5.69,4.28-7.06,6.58a5.59,5.59,0,0,1-3,1.81c-8.71,2.37-4.33-8.38-4.33-8.38C835.18,503.76,843.33,501.84,848.14,501.84Zm-9.62,26.52c-.21,3.07.3,8.41,6.86,6.44a3.2,3.2,0,0,0,2-1.68c1.2-2.44,3.53-8,1.52-10.83s-6.52.81-8.79,2.84A4.72,4.72,0,0,0,838.52,528.36Z" transform="translate(-546.52 -355)"/><path class="cls-5" d="M780.05,400.46s-49.34,19.71-19.41,55.41c0,0,23.11,24.59,43.55,1.19,19.14-21.91.77-40.31-1.66-42.58A5.37,5.37,0,0,0,802,414c-2.31-1.69-18.71-13-26.55,2.72,0,0-5.29,6.07-3.18-2.11,1.72-6.68,10.4-10.08,13.53-11.1a9.71,9.71,0,0,1,2.49-.48c4.47-.24,19,.43,28.57,18,10.49,19.27-8.21,39.43-11.29,42.54a6.88,6.88,0,0,1-.91.79c-3.28,2.4-22.38,15-44.54.89C735.75,449.8,745.75,423,745.75,423s7.41-15.63,19.7-19.7S781.16,398.09,780.05,400.46Z" transform="translate(-546.52 -355)"/><path class="cls-5" d="M779.9,425.35s-8.15-.22-5.56,8C774.34,433.35,782.34,435.43,779.9,425.35Z" transform="translate(-546.52 -355)"/><path class="cls-5" d="M786.12,427.43s6.74.44,3.85,7.7C790,435.13,782.27,437,786.12,427.43Z" transform="translate(-546.52 -355)"/><path class="cls-5" d="M762.12,433.53s-3.76,20,19.75,19.67,22-21.85,22-21.85-9.74,19.47-22,18.15C770,448.22,765.53,446.45,762.12,433.53Z" transform="translate(-546.52 -355)"/><path class="cls-6" d="M836.35,441.58S871.46,432,874.64,454,850.79,444.46,836.35,441.58Z" transform="translate(-546.52 -355)"/><path class="cls-7" d="M829,416.84S846.63,394,867.1,406.19a5.44,5.44,0,0,1,2.83,4.44c0,2.25-1.52,5-8.7,6.21C848.2,419,848.2,413.35,829,416.84Z" transform="translate(-546.52 -355)"/><path class="cls-6" d="M809.12,400.78s13.61-36.11,24.17-30S809.12,400.78,809.12,400.78Z" transform="translate(-546.52 -355)"/><path class="cls-6" d="M781,392.89s-2-40.78,10.17-37.72S786.23,378,781,392.89Z" transform="translate(-546.52 -355)"/><path class="cls-6" d="M757,396.84s2.51-35.64-15.62-36.43a5.74,5.74,0,0,0-5.84,7.5c.86,2.37,3,5.32,7.41,8.81C756.07,387.06,756.18,395.72,757,396.84Z" transform="translate(-546.52 -355)"/><path class="cls-6" d="M739,414.84s-7.74-25.22-28.25-20.94a5.29,5.29,0,0,0-4.28,5.18c0,3,1.2,6.78,6.48,7.7C722.18,408.39,736,411.11,739,414.84Z" transform="translate(-546.52 -355)"/><path d="M546.52,449.49a3.43,3.43,0,1,1,3.41,3.13A3.16,3.16,0,0,1,546.52,449.49Zm.63,7.26h5.53v23.58h-5.53Z" transform="translate(-546.52 -355)"/><path d="M559.73,474.26V446.42h5.53v28.13c0,1.36.61,1.84,1.19,1.84a3.4,3.4,0,0,0,.86-.09l.69,4.13a7.7,7.7,0,0,1-2.92.48C561.17,480.91,559.73,478.37,559.73,474.26Z" transform="translate(-546.52 -355)"/><path d="M572.46,471.54V456.75H578v14.08c0,3.88,1.12,5.33,3.67,5.33,2.08,0,3.44-1,5.22-3.26V456.75h5.54v23.58h-4.54l-.42-3.47h-.15c-2.08,2.45-4.36,4.05-7.59,4.05C574.67,480.91,572.46,477.49,572.46,471.54Z" transform="translate(-546.52 -355)"/><path d="M599.42,456.75H604l.43,3.22h.15c2-2.09,4.28-3.79,7.24-3.79,3.45,0,5.42,1.57,6.51,4.22,2.25-2.4,4.59-4.22,7.58-4.22,5,0,7.28,3.41,7.28,9.37v14.78h-5.53V466.26c0-3.88-1.15-5.34-3.63-5.34-1.5,0-3.11,1-4.93,2.94v16.47h-5.53V466.26c0-3.88-1.16-5.34-3.63-5.34-1.46,0-3.11,1-4.94,2.94v16.47h-5.53Z" transform="translate(-546.52 -355)"/><path d="M639.25,449.49a3.43,3.43,0,1,1,3.42,3.13A3.16,3.16,0,0,1,639.25,449.49Zm.63,7.26h5.53v23.58h-5.53Z" transform="translate(-546.52 -355)"/><path d="M652.46,456.75H657l.42,3.19h.16c2.11-2.06,4.51-3.76,7.74-3.76,5.05,0,7.25,3.41,7.25,9.37v14.78H667V466.26c0-3.88-1.11-5.34-3.66-5.34-2.08,0-3.44,1-5.38,2.94v16.47h-5.53Z" transform="translate(-546.52 -355)"/><path d="M677.78,468.56c0-7.66,5.32-12.38,10.87-12.38,6.38,0,9.74,4.6,9.74,11.19a14.77,14.77,0,0,1-.24,2.69h-15c.46,4.18,3.15,6.56,7,6.56a10.05,10.05,0,0,0,5.47-1.7l1.89,3.43a14.63,14.63,0,0,1-8.09,2.56C682.89,480.91,677.78,476.34,677.78,468.56Zm15.83-2.27c0-3.62-1.62-5.83-4.84-5.83-2.75,0-5.17,2.05-5.65,5.83Z" transform="translate(-546.52 -355)"/><path d="M632.74,500v-8.62H636v8.21c0,2.26.65,3.11,2.14,3.11,1.21,0,2-.56,3-1.9v-9.42h3.22v13.75h-2.64l-.25-2h-.08a5.62,5.62,0,0,1-4.43,2.36C634,505.51,632.74,503.51,632.74,500Z" transform="translate(-546.52 -355)"/><path d="M648.46,491.42h2.65l.24,1.87h.09a6,6,0,0,1,4.22-2.21,3.71,3.71,0,0,1,3.8,2.47c1.32-1.4,2.68-2.47,4.42-2.47,2.91,0,4.25,2,4.25,5.47v8.62H664.9V497c0-2.26-.67-3.11-2.11-3.11a4.23,4.23,0,0,0-2.88,1.71v9.61h-3.23V497c0-2.26-.67-3.11-2.11-3.11a4.27,4.27,0,0,0-2.88,1.71v9.61h-3.23Z" transform="translate(-546.52 -355)"/><path d="M671.33,501.48c0-3,2.44-4.48,8.08-5.09,0-1.48-.64-2.71-2.49-2.71a7.61,7.61,0,0,0-3.87,1.36l-1.19-2.15a10.68,10.68,0,0,1,5.65-1.81c3.44,0,5.13,2.12,5.13,5.95v8.14H680l-.25-1.52h-.09a6.65,6.65,0,0,1-4.27,1.86A3.85,3.85,0,0,1,671.33,501.48Zm8.08,0V498.4c-3.73.47-5,1.44-5,2.83,0,1.22.83,1.75,2,1.75A4.34,4.34,0,0,0,679.41,501.49Z" transform="translate(-546.52 -355)"/></svg>