<svg id="Layer_1" enable-background="new 0 0 512 512" height="512" viewBox="0 0 512 512" width="512" xmlns="http://www.w3.org/2000/svg"><g><path d="m428.775 512h-134.496c-2.209 0-4-1.791-4-4v-190.562h142.496v190.562c0 2.209-1.791 4-4 4z" fill="#ffcebf"/><path d="m290.279 317.438v105.825l88.894 4.614c12.721.66 22.697 11.167 22.697 23.905v60.218h26.905c2.209 0 4-1.791 4-4v-190.562z" fill="#ffb09e"/><path d="m256 345.495c0 35.061 28.491 63.495 63.647 63.495h94.265c29.501 0 53.422-23.865 53.422-53.295v-241.924c0-7.276-2.952-13.86-7.739-18.635-4.786-4.775-11.386-7.72-18.679-7.72-14.588 0-26.418 11.802-26.418 26.355v142.144h-105.672c.011-1.949.011-104.858.011-104.858 0-7.276-2.963-13.871-7.739-18.635-4.776-4.775-11.386-7.72-18.679-7.72-14.588 0-26.418 11.792-26.418 26.355v194.438z" fill="#ffcebf"/><g fill="#ffb09e"><path d="m273.764 132.423c4.776 4.765 7.739 11.359 7.739 18.635 0 0 0 58.176-.005 87.875-.001 9.381 7.603 16.983 16.984 16.983h10.344c.011-1.949.011-104.858.011-104.858 0-7.276-2.963-13.87-7.739-18.635-4.776-4.775-11.386-7.72-18.679-7.72-5.001 0-9.678 1.387-13.666 3.796 1.827 1.104 3.51 2.423 5.011 3.924z"/><path d="m459.596 95.136c-4.786-4.775-11.386-7.72-18.68-7.72-5.001 0-9.678 1.388-13.666 3.798 1.826 1.104 3.509 2.423 5.012 3.922 4.786 4.775 7.739 11.359 7.739 18.635v241.924c0 29.431-7.259 53.274-36.76 53.274l10.671.021c29.501 0 53.423-23.865 53.423-53.295v-241.924c0-7.276-2.953-13.86-7.739-18.635z"/><path d="m454.021 279.148s-65.52 16.27-76.567 50.04c-15.155 46.328 42.77 72.217 76.567 44.079z"/></g><path d="m361.659 255.916h52.839v-155.15c0-14.564-11.828-26.371-26.419-26.371-14.591 0-26.419 11.807-26.419 26.371v155.15z" fill="#ffcebf"/><path d="m388.079 74.396c-4.613 0-8.948 1.183-12.723 3.257 8.164 4.487 13.697 13.154 13.697 23.113v155.149h25.446v-155.149c-.001-14.564-11.829-26.37-26.42-26.37z" fill="#ffb09e"/><path d="m308.836 255.916h52.839v-135.236c0-14.578-11.817-26.395-26.395-26.395h-.049c-14.578 0-26.395 11.817-26.395 26.395z" fill="#ffcebf"/><path d="m335.28 94.285h-.049c-4.604 0-8.931 1.181-12.698 3.253 8.163 4.489 13.697 13.168 13.697 23.142v135.236h25.446v-135.236c-.001-14.578-11.819-26.395-26.396-26.395z" fill="#ffb09e"/><path d="m423.159 248.416h-124.836c-4.142 0-7.5 3.358-7.5 7.5s3.358 7.5 7.5 7.5h124.836c4.142 0 7.5-3.358 7.5-7.5 0-4.143-3.358-7.5-7.5-7.5z" fill="#ffb09e"/><path d="m451.037 207.509c-14.931 5.576-22.515 22.199-16.939 37.13l18.201 48.741c-3.348 6.223-10.897 12.586-16.746 14.805-40.626 15.415-48.276 58.617-44.002 73.922 6.67 23.883 11.69 26.862 11.69 26.862 25.931 6.281 63.469-2.844 85.518-29.416 15.619-18.824 27.297-70.307 21.909-93.678-1.558-6.758-13.545-38.28-22.622-61.751-5.703-14.741-22.202-22.145-37.009-16.615z" fill="#ffcebf"/><path d="m488.759 379.553c15.619-18.824 27.297-70.307 21.909-93.678-1.558-6.758-13.545-38.28-22.622-61.751-5.702-14.742-22.201-22.146-37.008-16.616-1.902.71-3.684 1.6-5.335 2.642-.007.006-.013.012-.02.016 5.043 3.192 9.141 7.969 11.458 13.958 9.077 23.471 21.064 54.993 22.622 61.751 5.388 23.371-6.289 74.854-21.908 93.678-13.737 16.555-35.404 25.912-54.612 29.416 25.929 6.282 63.467-2.844 85.516-29.416z" fill="#ffb09e"/><path d="m83.225 512h134.496c2.209 0 4-1.791 4-4v-190.562h-142.496v190.562c0 2.209 1.791 4 4 4z" fill="#ffcebf"/><path d="m79.225 317.438v107.462l91.796 2.723c11.026.327 19.794 9.36 19.794 20.39v63.987h26.905c2.209 0 4-1.791 4-4v-190.562z" fill="#ffb09e"/><path d="m256 345.495c0 35.061-28.491 63.495-63.647 63.495h-94.265c-29.501 0-53.422-23.865-53.422-53.295v-241.924c0-7.276 2.952-13.86 7.739-18.635s11.386-7.72 18.679-7.72c14.588 0 26.418 11.802 26.418 26.355v142.144h105.673c-.011-1.949-.011-104.858-.011-104.858 0-7.276 2.963-13.871 7.739-18.635 4.776-4.775 11.386-7.72 18.679-7.72 14.588 0 26.418 11.792 26.418 26.355z" fill="#ffcebf"/><path d="m60.75 279.148s65.52 16.27 76.567 50.04c15.155 46.328-40.413 72.21-74.211 44.072z" fill="#ffb09e"/><g fill="#ffb09e"><path d="m70.703 113.771v127.113c0 8.302 6.73 15.031 15.031 15.031h11.768v-142.144c0-14.553-11.83-26.355-26.418-26.355-4.893 0-9.47 1.33-13.401 3.645 7.789 4.584 13.02 13.037 13.02 22.71z"/><path d="m229.582 124.702c-4.891 0-9.471 1.329-13.401 3.642 7.789 4.582 13.02 13.033 13.02 22.713v194.438c0 35.061-28.491 63.495-63.647 63.495h26.799c35.156 0 63.647-28.434 63.647-63.495v-194.438c0-14.563-11.831-26.355-26.418-26.355z"/></g><path d="m150.341 255.916h-52.839v-155.15c0-14.564 11.828-26.371 26.419-26.371 14.591 0 26.419 11.807 26.419 26.371v155.15z" fill="#ffcebf"/><path d="m123.921 74.396c-4.814 0-9.323 1.292-13.21 3.537 7.895 4.56 13.21 13.074 13.21 22.834v155.149h26.42v-155.149c0-14.565-11.828-26.371-26.42-26.371z" fill="#ffb09e"/><path d="m203.164 255.916h-52.839v-135.236c0-14.578 11.817-26.395 26.395-26.395h.049c14.578 0 26.395 11.817 26.395 26.395z" fill="#ffcebf"/><path d="m176.769 94.285h-.049c-4.798 0-9.293 1.287-13.171 3.525 7.902 4.56 13.224 13.091 13.224 22.87v135.236h26.39v-135.236c.001-14.578-11.816-26.395-26.394-26.395z" fill="#ffb09e"/><path d="m213.678 248.416h-124.837c-4.142 0-7.5 3.358-7.5 7.5s3.358 7.5 7.5 7.5h124.836c4.142 0 7.5-3.358 7.5-7.5.001-4.143-3.357-7.5-7.499-7.5z" fill="#ffb09e"/><path d="m60.963 207.509c14.931 5.576 22.515 22.199 16.939 37.13l-18.201 48.741c3.348 6.223 10.897 12.586 16.746 14.805 40.626 15.415 48.276 58.617 44.002 73.922-6.67 23.883-11.69 26.862-11.69 26.862-25.931 6.281-63.469-2.844-85.518-29.416-15.619-18.823-27.296-70.306-21.908-93.677 1.558-6.758 13.545-38.28 22.622-61.751 5.702-14.742 22.201-22.146 37.008-16.616z" fill="#ffcebf"/><path d="m216.029 0c16.472 0 29.988 5.932 39.971 13.142 9.983-7.21 23.499-13.142 39.971-13.142 33.618 0 59.957 29.501 59.957 67.156 0 24.12-11.788 70.717-90.745 111.894-2.879 1.515-6.031 2.262-9.183 2.262s-6.304-.748-9.183-2.262c-78.956-41.177-90.745-87.774-90.745-111.894 0-37.655 26.339-67.156 59.957-67.156z" fill="#ee6161"/><g><path d="m295.971 0c-5.75 0-11.131.735-16.136 1.983 26.251 7.193 45.187 33.247 45.187 65.173 0 23.465-11.167 68.204-84.475 108.53 2.044 1.125 4.128 2.246 6.27 3.364 2.879 1.515 6.031 2.262 9.183 2.262s6.304-.748 9.183-2.262c78.956-41.177 90.745-87.774 90.745-111.894 0-37.655-26.339-67.156-59.957-67.156z" fill="#e94444"/></g></g></svg>